# xmcd
#
# Track frame offsets:
#	150
#	14343
#	30448
#	41361
#	63837
#	73078
#	84688
#	98424
#	114288
#	132521
#	144902
#	159929
#	180252
#	189568
#	203761
#	217815
#	231730
#	245784
#	260811
#	275421
#	287941
#	302412
#	310057
#	325365
#	337885
#	352634
#
# Disc length: 4799 seconds
#
# Revision: 82683313
# Processed by: cddbd v1.5.1PL0 Copyright (c) Steve Scherf et al.
# Submitted via: EasyCDDAExtractor 8.0.2.1
#
DISCID=6c12bd1a
DTITLE=Alicia Keys - The Ultimate Collection
DYEAR=2004
DGENRE=R&B
TTITLE0=My Boo ft. Usher
TTITLE1=If I Aint Got You (Duet With Usher)
TTITLE2=If I Aint Got You (Kanye West Rmx)
TTITLE3=You Don't Know My Name
TTITLE4=You Don't Know My Name (Rmx ft. Freeway)
TTITLE5=Juiciest
TTITLE6=Girlfriend
TTITLE7=Karma
TTITLE8=Diary ft. Tony Toni Tone
TTITLE9=Fallin
TTITLE10=Fallin (Rmx ft. Busta  Rhymes and Rampage)
TTITLE11=Streets Of Ny ft. Nas and Rakim
TTITLE12=Gangsta Lovin ft. Eve
TTITLE13=Warrior ft. Nas
TTITLE14=Jane Doe
TTITLE15=The Life Freestyle ft. Funk Master Flex
TTITLE16=A Woman's Worth
TTITLE17=A Woman's Worth (Rmx ft. Nas)
TTITLE18=Brotha  ft. Eve and Angie Stone
TTITLE19=How Come You Don't Call Me
TTITLE20=How Come You Don't Call Me (Remix)
TTITLE21=Killing Softly (Live)
TTITLE22=Loving You
TTITLE23=If I Was Your Woman (Walk On By)
TTITLE24=When You Really Love Someone
TTITLE25=Wake Up
EXTD=
EXTT0=
EXTT1=
EXTT2=
EXTT3=
EXTT4=
EXTT5=
EXTT6=
EXTT7=
EXTT8=
EXTT9=
EXTT10=
EXTT11=
EXTT12=
EXTT13=
EXTT14=
EXTT15=
EXTT16=
EXTT17=
EXTT18=
EXTT19=
EXTT20=
EXTT21=
EXTT22=
EXTT23=
EXTT24=
EXTT25=
PLAYORDER=
